<svg xmlns="http://www.w3.org/2000/svg" width="512" height="512" viewBox="0 0 512 512">
  <defs>
    <linearGradient id="bgm" x1="0" y1="0" x2="1" y2="1">
      <stop offset="0" stop-color="#FF7A1A"/>
      <stop offset="1" stop-color="#FF5E00"/>
    </linearGradient>
  </defs>
  <!-- Full-bleed background per la safe zone delle icone maskable -->
  <rect width="512" height="512" fill="url(#bgm)"/>
  <!-- Boccale ridimensionato dentro la safe zone (~80%) -->
  <g transform="translate(176 150) scale(0.78)">
    <path d="M150 70 h44 a44 44 0 0 1 44 44 v96 a44 44 0 0 1 -44 44 h-30 v-44 h26 a4 4 0 0 0 4 -4 v-88 a4 4 0 0 0 -4 -4 h-40 z" fill="#fff" opacity="0.92"/>
    <rect x="20" y="40" width="150" height="240" rx="18" fill="#fff"/>
    <rect x="40" y="120" width="110" height="142" rx="10" fill="#FFB000"/>
    <circle cx="56" cy="56" r="30" fill="#fff"/>
    <circle cx="100" cy="44" r="34" fill="#fff"/>
    <circle cx="148" cy="58" r="28" fill="#fff"/>
    <rect x="40" y="58" width="110" height="40" rx="14" fill="#fff"/>
  </g>
</svg>
