<svg version="1.1" xmlns="http://www.w3.org/2000/svg" style="display: block;" viewBox="0 0 2048 2048" width="2048" height="2048" preserveAspectRatio="none">
<path transform="translate(0,0)" fill="rgb(87,87,87)" d="M 0 0 L 56.7037 0 L 2048 0 L 2048 2048 L 0 2048 L 0 0 z"/>
<path transform="translate(0,0)" fill="rgb(0,2,1)" d="M 1080.77 887.149 C 1099 887.154 1119.16 886.738 1137.24 887.487 C 1155.28 891.193 1169.22 896.817 1182.57 910.242 C 1187.59 916.213 1189.87 919.712 1194.05 926.372 C 1194.36 921.155 1194.35 915.711 1194.43 910.47 C 1202.28 910.035 1211.38 910.208 1219.34 910.171 L 1219.29 967.055 C 1219.29 986.168 1219.11 1004.76 1220.03 1023.86 C 1223.54 1048.68 1229.7 1064.05 1249.19 1080.56 L 1251.82 1082.43 C 1251.79 1100.46 1252.16 1120.1 1251.66 1137.99 L 1194.03 1138.01 C 1194.1 1129.52 1194.7 1104.87 1193.34 1097.72 L 1193.42 1097.08 C 1175.92 1096.42 1155.09 1096.93 1137.33 1096.89 C 1136.27 1092.41 1136.72 1085.56 1136.9 1080.84 L 1131.25 1080.8 L 1135.17 1097.64 C 1121.05 1096.07 1081.44 1097 1065.52 1097.16 C 1025.21 1093.02 999.941 1062.95 995.705 1023.78 C 994.995 1005.51 995.33 985.443 995.281 967.042 C 996.732 943.529 999.94 929.426 1015.97 911.249 L 1024 903.665 C 1043.14 889.497 1057.52 886.769 1080.77 887.149 z"/>
<path transform="translate(0,0)" fill="rgb(242,61,33)" d="M 284.253 796.59 L 341.406 796.662 L 341.401 816.739 C 371.531 811.748 374.527 828.466 374.207 853.502 L 393.298 853.63 C 393.199 869.552 392.476 895.094 393.64 910.202 C 393.597 916.748 392.94 925.809 394.747 931.719 C 396.229 933.058 396.221 933.25 397.938 934.19 C 400.886 934.728 434.57 948.745 439.434 950.742 C 440.075 938.702 439.532 922.549 439.532 910.153 L 455.176 910.255 L 455.23 853.629 L 511.942 853.655 L 512.009 910.209 L 511.989 967.119 L 511.986 1024 L 512.003 1080.84 L 511.981 1138.04 L 455.297 1137.99 L 455.261 1106.96 C 441.161 1102.03 437.233 1095.43 436.955 1080.91 L 419.457 1080.96 C 419.628 1096.49 417.768 1112.13 398.189 1114.04 L 398.129 1138.01 L 341.498 1138.06 C 341.482 1130.75 341.618 1123.44 341.907 1116.14 C 333.607 1118.68 328.448 1118.12 320.116 1117.22 C 304.4 1105.04 306.664 1099.31 307.028 1080.8 L 284.44 1080.88 L 284.607 1024 L 306.901 1023.92 C 306.75 1015.48 304.834 985.734 309.231 980.693 C 312.956 980.1 311.845 980.312 315.865 981.94 C 322.919 981.011 326.432 983.5 331.408 979.071 L 331.51 974.168 C 325.332 971.555 319.263 968.855 312.884 966.78 C 305.087 967.421 292.716 967.119 284.58 967.171 L 284.71 949.087 C 272.139 934.552 268.955 929.493 265.479 910.229 C 263.75 894.465 264.369 870.189 264.358 853.735 C 263.763 839.433 270.089 829.303 284.314 825.86 L 284.253 796.59 z"/>
<!-- Logo Strabar (mosaico pixel). Vedi 2.svg originale per la versione completa. -->
</svg>
